<svg width="279" height="152" viewBox="0 0 279 152" fill="none" xmlns="http://www.w3.org/2000/svg">
<path d="M124.462 76.7089C124.462 76.7089 121.393 76.4553 119.857 77.4747C118.321 78.4941 116.241 79.4282 114.757 77.0789C113.273 74.7296 116.293 72.7969 119.313 73.5886C119.313 73.5886 122.729 74.1837 124.462 76.7089Z" fill="#024547"/>
<path d="M118.67 71.8055C118.67 71.8055 110.816 72.0643 107.917 75.9789C105.101 79.7823 96.0403 84.1419 90.6927 78.5481C84.9805 72.574 89.2575 63.878 100.695 64.9672C100.695 64.9672 109.658 64.8741 118.67 71.8055Z" fill="#024547"/>
<path d="M174.217 70.1709C174.217 70.1709 165.911 70.5124 163.538 74.3106C160.414 79.3119 151.229 81.7388 146.153 76.6858C140.296 70.8539 144.575 62.4607 156.031 63.3585C156.031 63.3585 165.19 63.2964 174.217 70.1709Z" fill="#024547"/>
<path d="M153.233 48.543C153.233 48.543 159.917 41.904 167.445 41.7306C171.285 41.6426 179.526 41.5081 180.618 36.1601C182.267 28.0592 174.008 25.2649 164.748 32.0695C164.745 32.0695 156.178 37.3968 153.233 48.543Z" fill="#024547"/>
<path d="M167.243 28.7007C167.243 28.7007 169.431 26.028 172.084 25.7434C173.436 25.5985 176.322 25.0707 176.55 23.1509C176.894 20.2428 173.651 19.3372 170.582 22.0125C170.582 22.0125 167.709 24.6386 167.243 28.7007Z" fill="#024547"/>
<path d="M155.56 10.4527C155.56 10.4527 153.618 7.83437 151.252 7.6455C149.387 7.49543 147.955 7.10992 147.901 5.23411C147.82 2.39582 150.667 1.24964 153.215 3.82144C153.217 3.82144 155.707 6.22506 155.56 10.4527Z" fill="#024547"/>
<path d="M142.142 54.8123C142.142 54.8123 142.233 52.6519 142.636 49.8576C142.889 48.1034 143.606 46.2405 143.443 44.0645C143.246 41.4565 142.587 38.7347 141.087 36.3466C138.643 32.4578 132.437 24.9882 140.063 19.7851C146.89 15.1279 157.939 16.9623 156.212 31.5755C156.209 31.5755 156.649 42.1292 142.142 54.8123Z" fill="#024547"/>
<path d="M138.563 77.2573C139 77.617 139.633 77.1668 139.437 76.6338C137.973 72.6622 135.01 64.2741 138.821 55.9507C140.735 51.7748 143.921 43.6144 137.534 39.0555C130.805 34.256 121.043 38.0154 123.479 52.8796C123.482 52.8796 125.512 66.5432 138.563 77.2573Z" fill="#024547"/>
<path d="M143.644 63.2911C143.298 63.8086 143.856 64.445 144.417 64.1811C148.917 62.0647 157.985 56.7917 169.524 59.5188C174.429 60.6779 183.733 61.0582 187.25 55.7051C191.954 48.546 187.695 37.6714 170.168 42.2795C170.168 42.2769 153.939 47.8732 143.644 63.2911Z" fill="#024547"/>
<path d="M134.284 32.7399C134.7 33.1591 135.411 32.8098 135.32 32.225C134.806 28.8641 132.706 22.3415 137.19 14.6959C138.977 11.6481 141.615 6.73474 137.389 2.38803C133.205 -1.91468 124.147 -1.2575 124.349 11.5265C124.349 11.5265 124.147 22.4915 134.284 32.7399Z" fill="#024547"/>
<path d="M119.495 28.2354C119.322 28.5795 118.732 28.6157 118.67 28.2354C118.318 26.0491 117.822 22.2897 113.883 18.0672C111.243 15.2341 109.821 13.9974 111.572 10.4527C113.307 6.9469 119.989 6.42167 121.97 13.3428C121.972 13.3428 123.736 19.8499 119.495 28.2354Z" fill="#024547"/>
<path d="M116.28 36.16C116.249 36.5119 115.758 36.7448 115.577 36.4395C114.535 34.6956 112.859 30.8146 105.761 28.8974C102.335 27.9712 101.016 26.2351 101.305 22.6206C101.592 19.0449 106.751 17.2571 110.798 21.7616C110.798 21.7642 117.043 27.5805 116.28 36.16Z" fill="#024547"/>
<path d="M112.562 62.2926C112.769 62.6677 112.394 63.2266 112.014 63.0299C109.829 61.8941 104.176 58.9239 95.6268 60.8721C91.6678 61.7751 87.8536 61.1541 85.8547 57.2369C83.8765 53.3611 87.4399 47.8243 95.2338 49.8838C95.2338 49.8863 106.687 51.625 112.562 62.2926Z" fill="#024547"/>
<path d="M112.246 54.3859C112.226 54.2048 112.471 54.0573 112.59 54.2022C113.281 55.0353 115.065 57.2061 118.846 58.0133C120.596 58.3885 122.031 59.3199 122.181 61.188C122.329 63.0353 119.663 64.8775 116.86 62.6679C116.862 62.6653 112.826 59.5502 112.246 54.3859Z" fill="#024547"/>
<path d="M158.753 32.9803C158.368 33.2468 157.867 32.869 158.022 32.4292C158.911 29.891 161.389 24.9363 157.096 18.5275C155.542 16.2067 154.598 12.1135 158.521 9.35029C162.048 6.86646 170.861 7.46154 168.913 19.0553C168.913 19.0553 168.127 26.4835 158.753 32.9803Z" fill="#024547"/>
<path d="M140.326 15.035C140.047 15.4774 140.526 16.0156 140.999 15.7957C142.209 15.2368 143.898 14.621 147.898 15.4749C149.248 15.7621 152.793 16.6702 153.975 14.6159C155.035 12.7685 154.668 9.26529 149.056 9.95869C149.056 9.95869 143.197 10.4969 140.326 15.035Z" fill="#024547"/>
<path d="M153.667 84.7194C153.279 84.5176 153.44 84.0208 153.864 83.9147C154.709 83.7025 156.328 83.405 157.59 83.2006C161.226 82.6081 165.643 81.4412 169.253 77.6482C171.694 75.0842 176.62 70.471 181.706 73.7439C187.062 77.1903 186.177 83.9251 176.209 86.8979C176.209 86.9005 164.026 90.1372 153.667 84.7194Z" fill="#024547"/>
<path d="M169.681 62.8692C169.384 63.0063 169.482 63.3841 169.798 63.4798C170.424 63.6712 171.701 63.9584 172.966 64.2405C175.668 64.8459 178.662 66.3129 181.225 69.3013C182.957 71.3194 186.795 75.1279 190.741 72.8692C194.897 70.4914 194.056 65.0011 186.686 62.3802C186.686 62.3828 177.669 59.2081 169.681 62.8692Z" fill="#024547"/>
<path d="M121.31 44.0284C121.31 44.0284 122.086 38.2535 125.887 35.6765C127.198 34.789 129.786 32.1577 127.945 29.5627C126.298 27.2392 122.466 26.5562 120.65 31.6429C120.65 31.6403 118.142 38.1888 121.31 44.0284Z" fill="#024547"/>
<path d="M118.523 56.3237C118.523 56.3237 115.877 53.4363 114.486 52.2125C113.612 51.444 110.99 49.4595 109.733 48.7687C108.228 47.9434 105.797 46.4401 100.796 45.7726C97.8069 45.3716 92.5239 43.9589 92.3946 37.8968C92.2809 32.4686 98.3189 28.1581 106.614 34.378C106.612 34.3755 117.408 41.6821 118.523 56.3237Z" fill="#024547"/>
<path d="M116.572 65.5451C117.555 66.1634 123.839 70.3212 127.485 77.752C127.485 77.752 135.884 89.439 125.662 108.425C125.483 108.759 125.726 109.162 126.107 109.162H148.744C149.012 109.162 149.173 108.865 149.023 108.642C147.988 107.087 144.901 102.301 142.985 97.8167C142.985 97.8167 140.164 91.3303 143.282 87.8607C145.607 85.276 147.601 83.5451 148.467 82.8284C148.63 82.6938 148.547 82.4325 148.338 82.4118C146.018 82.1945 137.417 81.0146 132.587 75.2242C132.587 75.2242 127.048 65.6097 116.601 65.4648C116.554 65.4648 116.536 65.5218 116.572 65.5451Z" fill="#024547"/>
<path d="M20.457 127.609L18.4038 128.892C16.6325 126.519 14.2121 125.334 11.1452 125.334C8.68861 125.334 6.65092 126.124 5.03215 127.699C3.41338 129.278 2.604 131.197 2.604 133.459C2.604 134.926 2.97637 136.31 3.7211 137.614C4.46584 138.915 5.48727 139.922 6.7828 140.631C8.07834 141.34 9.53161 141.694 11.1452 141.694C14.1138 141.694 16.5342 140.519 18.4038 138.173L20.457 139.51C19.4925 140.954 18.1995 142.069 16.5808 142.858C14.962 143.648 13.1131 144.041 11.0366 144.041C7.87146 144.041 5.24161 143.032 3.14445 141.014C1.04729 138.996 0 136.545 0 133.658C0 131.702 0.49132 129.888 1.47655 128.219C2.45919 126.551 3.80385 125.249 5.51054 124.312C7.21465 123.378 9.1308 122.91 11.2564 122.91C12.5752 122.91 13.8552 123.112 15.0965 123.516C16.3377 123.919 17.3901 124.447 18.259 125.102C19.1253 125.759 19.8571 126.592 20.457 127.609Z" fill="black"/>
<path d="M34.9018 122.913C37.9945 122.913 40.5597 124.031 42.6 126.269C44.4825 128.31 45.4238 130.74 45.4238 133.552C45.4471 140.497 45.4471 144.026 45.4238 144.134H42.6931V139.568C41.2631 142.233 38.6668 143.726 34.9018 144.044C31.822 144.044 29.3059 142.996 27.3587 140.898C25.409 138.799 24.4341 136.352 24.4341 133.552C24.4341 130.763 25.3572 128.344 27.201 126.29C29.2438 124.036 31.8091 122.913 34.9018 122.913ZM34.9018 125.443C32.7633 125.443 30.9247 126.238 29.3835 127.829C27.8423 129.42 27.0743 131.337 27.0743 133.588C27.0743 135.045 27.4673 136.445 28.256 137.788C29.0447 139.133 30.3791 140.271 32.2616 141.2C36.9783 142.253 40.3322 140.106 42.3259 134.763C42.4371 133.05 42.2535 131.412 41.7751 129.847C41.4338 129.138 40.9631 128.465 40.3632 127.829C38.8634 126.238 37.0403 125.443 34.9018 125.443Z" fill="black"/>
<path d="M58.4954 143.327C57.1508 143.839 55.9535 144.08 54.901 144.044C52.9202 143.932 51.3558 142.905 50.2076 140.962C49.512 139.741 49.1733 138.395 49.1991 136.926V116.033H51.8031V125.754H56.587V127.974H51.8212V136.483C51.7488 138.587 52.4574 140.207 53.9468 141.345C55.17 141.919 56.4164 141.865 57.686 141.179C58.0196 142.098 58.2886 142.812 58.4954 143.327Z" fill="black"/>
<path d="M72.1157 122.913C75.2084 122.913 77.7736 124.031 79.8139 126.269C81.6964 128.31 82.6377 130.74 82.6377 133.552C82.6609 140.497 82.6609 144.026 82.6377 144.134H79.907V139.568C78.477 142.233 75.8807 143.726 72.1157 144.044C69.0359 144.044 66.5198 142.996 64.5726 140.898C62.6228 138.799 61.6479 136.352 61.6479 133.552C61.6479 130.763 62.5711 128.344 64.4149 126.29C66.4577 124.036 69.0255 122.913 72.1157 122.913ZM72.1157 125.443C69.9771 125.443 68.1385 126.238 66.5974 127.829C65.0587 129.418 64.2881 131.337 64.2881 133.588C64.2881 135.045 64.6812 136.445 65.4699 137.788C66.2586 139.133 67.5929 140.271 69.4755 141.2C74.1921 142.253 77.546 140.106 79.5398 134.763C79.651 133.05 79.4674 131.412 78.989 129.847C78.6476 129.138 78.177 128.465 77.5771 127.829C76.0772 126.238 74.2542 125.443 72.1157 125.443Z" fill="black"/>
<path d="M89.8623 116.127H87.2583V144.026H89.8623V116.127Z" fill="black"/>
<path d="M100.796 123.93C102.231 123.301 103.769 122.985 105.406 122.985C108.266 122.985 110.71 124.013 112.74 126.067C114.77 128.121 115.784 130.597 115.784 133.495C115.784 136.442 114.775 138.949 112.758 141.016C110.741 143.084 108.315 144.116 105.481 144.116C103.881 144.116 102.407 143.79 101.062 143.135C99.7174 142.481 98.502 141.487 97.4133 140.155V151.381H94.8481V132.323C95.0679 130.551 95.7273 128.747 96.8289 126.913C98.0391 125.552 99.3605 124.561 100.796 123.93ZM99.5415 127.808C98.0003 129.373 97.2323 131.324 97.2323 133.661C97.2323 135.177 97.5737 136.548 98.2589 137.777C98.9442 139.006 99.9217 139.979 101.191 140.693C102.464 141.407 103.806 141.767 105.225 141.767C106.619 141.767 107.93 141.41 109.158 140.693C110.387 139.976 111.364 138.97 112.091 137.666C112.818 136.364 113.182 135.003 113.182 133.586C113.182 132.142 112.823 130.786 112.101 129.513C111.38 128.24 110.413 127.247 109.195 126.533C107.979 125.818 106.642 125.459 105.189 125.459C102.963 125.461 101.08 126.245 99.5415 127.808Z" fill="black"/>
<path d="M130.466 122.913C133.559 122.913 136.124 124.031 138.164 126.269C140.047 128.31 140.988 130.74 140.988 133.552C141.012 140.497 141.012 144.026 140.988 144.134H138.258V139.568C136.828 142.233 134.231 143.726 130.466 144.044C127.386 144.044 124.87 142.996 122.923 140.898C120.973 138.799 119.999 136.352 119.999 133.552C119.999 130.763 120.922 128.344 122.765 126.29C124.808 124.036 127.376 122.913 130.466 122.913ZM130.466 125.443C128.328 125.443 126.489 126.238 124.948 127.829C123.407 129.42 122.639 131.337 122.639 133.588C122.639 135.045 123.032 136.445 123.82 137.788C124.609 139.133 125.944 140.271 127.826 141.2C132.543 142.253 135.897 140.106 137.89 134.763C138.002 133.05 137.818 131.412 137.34 129.847C136.998 129.138 136.528 128.465 135.928 127.829C134.428 126.238 132.605 125.443 130.466 125.443Z" fill="black"/>
<path d="M165.59 122.913C168.683 122.913 171.248 124.031 173.289 126.269C175.135 128.323 176.056 130.75 176.056 133.552C176.056 136.352 175.078 138.802 173.123 140.898C171.168 142.996 168.657 144.044 165.588 144.044C162.508 144.044 159.992 142.996 158.045 140.898C156.095 138.799 155.12 136.352 155.12 133.552C155.12 130.763 156.043 128.344 157.887 126.29C159.932 124.036 162.5 122.913 165.59 122.913ZM165.59 125.443C163.452 125.443 161.613 126.238 160.072 127.829C158.534 129.418 157.763 131.337 157.763 133.588C157.763 135.045 158.115 136.403 158.818 137.669C159.521 138.934 160.47 139.907 161.668 140.584C162.865 141.262 164.173 141.601 165.59 141.601C167.033 141.601 168.35 141.262 169.542 140.584C170.734 139.907 171.678 138.934 172.373 137.669C173.071 136.403 173.418 135.042 173.418 133.588C173.418 131.337 172.647 129.418 171.109 127.829C169.57 126.238 167.729 125.443 165.59 125.443Z" fill="black"/>
<path d="M186.407 123.93C187.842 123.301 189.381 122.985 191.018 122.985C193.878 122.985 196.321 124.013 198.351 126.067C200.381 128.121 201.395 130.597 201.395 133.495C201.395 136.442 200.386 138.949 198.369 141.016C196.352 143.084 193.927 144.116 191.093 144.116C189.492 144.116 188.018 143.79 186.673 143.135C185.329 142.481 184.113 141.487 183.025 140.155V151.381H180.459V132.323C180.679 130.551 181.339 128.747 182.44 126.913C183.648 125.552 184.972 124.561 186.407 123.93ZM185.153 127.808C183.612 129.373 182.844 131.324 182.844 133.661C182.844 135.177 183.185 136.548 183.87 137.777C184.556 139.006 185.533 139.979 186.803 140.693C188.072 141.407 189.417 141.767 190.837 141.767C192.23 141.767 193.542 141.41 194.77 140.693C195.998 139.976 196.976 138.97 197.702 137.666C198.429 136.364 198.793 135.003 198.793 133.586C198.793 132.142 198.434 130.786 197.713 129.513C196.991 128.24 196.024 127.247 194.806 126.533C193.591 125.818 192.254 125.459 190.8 125.459C188.574 125.461 186.691 126.245 185.153 127.808Z" fill="black"/>
<path d="M214.629 143.327C213.285 143.839 212.088 144.08 211.035 144.044C209.054 143.932 207.49 142.905 206.342 140.962C205.646 139.741 205.31 138.395 205.333 136.926V116.033H207.937V125.754H212.721V127.974H207.955V136.483C207.883 138.587 208.591 140.207 210.081 141.345C211.304 141.919 212.55 141.865 213.82 141.179C214.154 142.098 214.423 142.812 214.629 143.327Z" fill="black"/>
<path d="M219.651 115.63C220.238 115.63 220.742 115.837 221.164 116.253C221.585 116.67 221.797 117.169 221.797 117.757C221.797 118.344 221.585 118.849 221.164 119.27C220.742 119.692 220.238 119.904 219.651 119.904C219.064 119.904 218.562 119.692 218.149 119.27C217.732 118.849 217.525 118.344 217.525 117.757C217.525 117.169 217.732 116.667 218.149 116.253C218.565 115.839 219.067 115.63 219.651 115.63ZM218.368 123.904H220.952V144.026H218.368V123.904Z" fill="black"/>
<path d="M245.812 127.609L243.759 128.892C241.988 126.519 239.568 125.334 236.501 125.334C234.044 125.334 232.006 126.124 230.388 127.699C228.769 129.278 227.959 131.197 227.959 133.459C227.959 134.926 228.332 136.31 229.077 137.614C229.821 138.915 230.843 139.922 232.138 140.631C233.434 141.34 234.887 141.694 236.501 141.694C239.472 141.694 241.89 140.519 243.759 138.173L245.812 139.51C244.848 140.954 243.555 142.069 241.936 142.858C240.317 143.648 238.469 144.041 236.392 144.041C233.227 144.041 230.597 143.032 228.5 141.014C226.403 138.996 225.355 136.545 225.355 133.658C225.355 131.702 225.847 129.888 226.832 128.219C227.815 126.551 229.159 125.249 230.866 124.312C232.57 123.378 234.486 122.91 236.614 122.91C237.933 122.91 239.213 123.112 240.455 123.516C241.696 123.919 242.748 124.447 243.617 125.102C244.481 125.759 245.213 126.592 245.812 127.609Z" fill="black"/>
<path d="M260.257 122.913C263.35 122.913 265.915 124.031 267.955 126.269C269.838 128.31 270.779 130.74 270.779 133.552C270.803 140.497 270.803 144.026 270.779 144.134H268.049V139.568C266.619 142.233 264.022 143.726 260.257 144.044C257.177 144.044 254.661 142.996 252.714 140.898C250.764 138.799 249.79 136.352 249.79 133.552C249.79 130.763 250.713 128.344 252.556 126.29C254.599 124.036 257.165 122.913 260.257 122.913ZM260.257 125.443C258.119 125.443 256.28 126.238 254.739 127.829C253.2 129.418 252.43 131.337 252.43 133.588C252.43 135.045 252.823 136.445 253.612 137.788C254.4 139.133 255.735 140.271 257.617 141.2C262.334 142.253 265.69 140.106 267.681 134.763C267.793 133.05 267.609 131.412 267.131 129.847C266.789 129.138 266.319 128.465 265.719 127.829C264.216 126.238 262.396 125.443 260.257 125.443Z" fill="black"/>
<path d="M278.004 116.127H275.4V144.026H278.004V116.127Z" fill="black"/>
</svg>
