<svg width="7" height="6" viewBox="0 0 7 6" fill="none" xmlns="http://www.w3.org/2000/svg">
<path d="M4.00759 5.98002C3.93559 5.98002 3.87559 5.96002 3.82759 5.92002C3.78759 5.87202 3.76759 5.81202 3.76759 5.74002V5.26002C3.76759 5.15602 3.78359 5.07602 3.81559 5.02002C3.84759 4.95602 3.90359 4.88402 3.98359 4.80402L5.78359 3.05202L3.98359 1.30002C3.90359 1.22002 3.84759 1.15202 3.81559 1.09602C3.78359 1.03202 3.76759 0.948024 3.76759 0.844023V0.364023C3.76759 0.292023 3.78759 0.236023 3.82759 0.196023C3.87559 0.148023 3.93559 0.124023 4.00759 0.124023C4.04759 0.124023 4.09159 0.136023 4.13959 0.160023C4.18759 0.176023 4.23159 0.204023 4.27159 0.244023L6.59959 2.50002C6.67159 2.57202 6.71959 2.64002 6.74359 2.70402C6.76759 2.76802 6.78359 2.83202 6.79159 2.89602V3.20802C6.78359 3.27202 6.76759 3.33602 6.74359 3.40002C6.71959 3.46402 6.67159 3.53202 6.59959 3.60402L4.27159 5.86002C4.23159 5.90002 4.18759 5.93202 4.13959 5.95602C4.09159 5.97202 4.04759 5.98002 4.00759 5.98002ZM0.935594 5.98002C0.863594 5.98002 0.803594 5.96002 0.755594 5.92002C0.707594 5.87202 0.683594 5.81202 0.683594 5.74002V5.26002C0.683594 5.15602 0.699594 5.07602 0.731594 5.02002C0.763594 4.95602 0.819594 4.88402 0.899594 4.80402L2.71159 3.05202L0.899594 1.30002C0.819594 1.22002 0.763594 1.15202 0.731594 1.09602C0.699594 1.03202 0.683594 0.948024 0.683594 0.844023V0.364023C0.683594 0.292023 0.707594 0.236023 0.755594 0.196023C0.803594 0.148023 0.863594 0.124023 0.935594 0.124023C0.975594 0.124023 1.01559 0.136023 1.05559 0.160023C1.10359 0.176023 1.15159 0.204023 1.19959 0.244023L3.51559 2.50002C3.58759 2.57202 3.63559 2.64002 3.65959 2.70402C3.69159 2.76802 3.71159 2.83202 3.71959 2.89602V3.20802C3.71159 3.27202 3.69159 3.33602 3.65959 3.40002C3.63559 3.46402 3.58759 3.53202 3.51559 3.60402L1.19959 5.86002C1.15159 5.90002 1.10359 5.93202 1.05559 5.95602C1.01559 5.97202 0.975594 5.98002 0.935594 5.98002Z" fill="#111111"/>
</svg>
