<svg width="213" height="73" viewBox="0 0 213 73" fill="none" xmlns="http://www.w3.org/2000/svg">
<g clip-path="url(#clip0_71_2269)">
<path fill-rule="evenodd" clip-rule="evenodd" d="M1.64 0C2.54575 0 3.28 0.73425 3.28 1.64C3.28 2.54575 2.54575 3.28 1.64 3.28C0.73425 3.28 0 2.54575 0 1.64C0 0.73425 0.73425 0 1.64 0Z" fill="#024547"/>
<path fill-rule="evenodd" clip-rule="evenodd" d="M24.9186 0C25.8243 0 26.5586 0.73425 26.5586 1.64C26.5586 2.54575 25.8243 3.28 24.9186 3.28C24.0128 3.28 23.2786 2.54575 23.2786 1.64C23.2786 0.73425 24.0128 0 24.9186 0Z" fill="#024547"/>
<path fill-rule="evenodd" clip-rule="evenodd" d="M48.2011 0C49.1068 0 49.8411 0.73425 49.8411 1.64C49.8411 2.54575 49.1068 3.28 48.2011 3.28C47.2953 3.28 46.5611 2.54575 46.5611 1.64C46.5611 0.73425 47.2953 0 48.2011 0Z" fill="#024547"/>
<path fill-rule="evenodd" clip-rule="evenodd" d="M71.4797 0C72.3854 0 73.1197 0.73425 73.1197 1.64C73.1197 2.54575 72.3854 3.28 71.4797 3.28C70.5739 3.28 69.8397 2.54575 69.8397 1.64C69.8397 0.73425 70.5739 0 71.4797 0Z" fill="#024547"/>
<path fill-rule="evenodd" clip-rule="evenodd" d="M94.7583 0C95.664 0 96.3983 0.73425 96.3983 1.64C96.3983 2.54575 95.664 3.28 94.7583 3.28C93.8525 3.28 93.1183 2.54575 93.1183 1.64C93.1183 0.73425 93.8525 0 94.7583 0Z" fill="#024547"/>
<path fill-rule="evenodd" clip-rule="evenodd" d="M118.041 0C118.947 0 119.681 0.73425 119.681 1.64C119.681 2.54575 118.947 3.28 118.041 3.28C117.135 3.28 116.401 2.54575 116.401 1.64C116.401 0.73425 117.135 0 118.041 0Z" fill="#024547"/>
<path fill-rule="evenodd" clip-rule="evenodd" d="M141.319 0C142.225 0 142.959 0.73425 142.959 1.64C142.959 2.54575 142.225 3.28 141.319 3.28C140.414 3.28 139.679 2.54575 139.679 1.64C139.679 0.73425 140.414 0 141.319 0Z" fill="#024547"/>
<path fill-rule="evenodd" clip-rule="evenodd" d="M164.602 0C165.508 0 166.242 0.73425 166.242 1.64C166.242 2.54575 165.508 3.28 164.602 3.28C163.696 3.28 162.962 2.54575 162.962 1.64C162.962 0.73425 163.696 0 164.602 0Z" fill="#024547"/>
<path fill-rule="evenodd" clip-rule="evenodd" d="M187.88 0C188.786 0 189.52 0.73425 189.52 1.64C189.52 2.54575 188.786 3.28 187.88 3.28C186.975 3.28 186.24 2.54575 186.24 1.64C186.24 0.73425 186.975 0 187.88 0Z" fill="#024547"/>
<path fill-rule="evenodd" clip-rule="evenodd" d="M211.159 0C212.065 0 212.799 0.73425 212.799 1.64C212.799 2.54575 212.065 3.28 211.159 3.28C210.253 3.28 209.519 2.54575 209.519 1.64C209.519 0.73425 210.253 0 211.159 0Z" fill="#024547"/>
<path fill-rule="evenodd" clip-rule="evenodd" d="M1.64 23.2803C2.54575 23.2803 3.28 24.0146 3.28 24.9203C3.28 25.8261 2.54575 26.5603 1.64 26.5603C0.73425 26.5603 0 25.8261 0 24.9203C0 24.0146 0.73425 23.2803 1.64 23.2803Z" fill="#024547"/>
<path fill-rule="evenodd" clip-rule="evenodd" d="M24.9186 23.2803C25.8243 23.2803 26.5586 24.0146 26.5586 24.9203C26.5586 25.8261 25.8243 26.5603 24.9186 26.5603C24.0128 26.5603 23.2786 25.8261 23.2786 24.9203C23.2786 24.0146 24.0128 23.2803 24.9186 23.2803Z" fill="#024547"/>
<path fill-rule="evenodd" clip-rule="evenodd" d="M48.2011 23.2803C49.1068 23.2803 49.8411 24.0146 49.8411 24.9203C49.8411 25.8261 49.1068 26.5603 48.2011 26.5603C47.2953 26.5603 46.5611 25.8261 46.5611 24.9203C46.5611 24.0146 47.2953 23.2803 48.2011 23.2803Z" fill="#024547"/>
<path fill-rule="evenodd" clip-rule="evenodd" d="M71.4797 23.2803C72.3854 23.2803 73.1197 24.0146 73.1197 24.9203C73.1197 25.8261 72.3854 26.5603 71.4797 26.5603C70.5739 26.5603 69.8397 25.8261 69.8397 24.9203C69.8397 24.0146 70.5739 23.2803 71.4797 23.2803Z" fill="#024547"/>
<path fill-rule="evenodd" clip-rule="evenodd" d="M94.7583 23.2803C95.664 23.2803 96.3983 24.0146 96.3983 24.9203C96.3983 25.8261 95.664 26.5603 94.7583 26.5603C93.8525 26.5603 93.1183 25.8261 93.1183 24.9203C93.1183 24.0146 93.8525 23.2803 94.7583 23.2803Z" fill="#024547"/>
<path fill-rule="evenodd" clip-rule="evenodd" d="M118.041 23.2803C118.947 23.2803 119.681 24.0146 119.681 24.9203C119.681 25.8261 118.947 26.5603 118.041 26.5603C117.135 26.5603 116.401 25.8261 116.401 24.9203C116.401 24.0146 117.135 23.2803 118.041 23.2803Z" fill="#024547"/>
<path fill-rule="evenodd" clip-rule="evenodd" d="M141.319 23.2803C142.225 23.2803 142.959 24.0146 142.959 24.9203C142.959 25.8261 142.225 26.5603 141.319 26.5603C140.414 26.5603 139.679 25.8261 139.679 24.9203C139.679 24.0146 140.414 23.2803 141.319 23.2803Z" fill="#024547"/>
<path fill-rule="evenodd" clip-rule="evenodd" d="M164.602 23.2803C165.508 23.2803 166.242 24.0146 166.242 24.9203C166.242 25.8261 165.508 26.5603 164.602 26.5603C163.696 26.5603 162.962 25.8261 162.962 24.9203C162.962 24.0146 163.696 23.2803 164.602 23.2803Z" fill="#024547"/>
<path fill-rule="evenodd" clip-rule="evenodd" d="M187.88 23.2803C188.786 23.2803 189.52 24.0146 189.52 24.9203C189.52 25.8261 188.786 26.5603 187.88 26.5603C186.975 26.5603 186.24 25.8261 186.24 24.9203C186.24 24.0146 186.975 23.2803 187.88 23.2803Z" fill="#024547"/>
<path fill-rule="evenodd" clip-rule="evenodd" d="M211.159 23.2803C212.065 23.2803 212.799 24.0146 212.799 24.9203C212.799 25.8261 212.065 26.5603 211.159 26.5603C210.253 26.5603 209.519 25.8261 209.519 24.9203C209.519 24.0146 210.253 23.2803 211.159 23.2803Z" fill="#024547"/>
<path fill-rule="evenodd" clip-rule="evenodd" d="M1.64 46.5606C2.54575 46.5606 3.28 47.2949 3.28 48.2006C3.28 49.1064 2.54575 49.8406 1.64 49.8406C0.73425 49.8406 0 49.1064 0 48.2006C0 47.2949 0.73425 46.5606 1.64 46.5606Z" fill="#024547"/>
<path fill-rule="evenodd" clip-rule="evenodd" d="M24.9186 46.5606C25.8243 46.5606 26.5586 47.2949 26.5586 48.2006C26.5586 49.1064 25.8243 49.8406 24.9186 49.8406C24.0128 49.8406 23.2786 49.1064 23.2786 48.2006C23.2786 47.2949 24.0128 46.5606 24.9186 46.5606Z" fill="#024547"/>
<path fill-rule="evenodd" clip-rule="evenodd" d="M48.2011 46.5606C49.1068 46.5606 49.8411 47.2949 49.8411 48.2006C49.8411 49.1064 49.1068 49.8406 48.2011 49.8406C47.2953 49.8406 46.5611 49.1064 46.5611 48.2006C46.5611 47.2949 47.2953 46.5606 48.2011 46.5606Z" fill="#024547"/>
<path fill-rule="evenodd" clip-rule="evenodd" d="M71.4797 46.5606C72.3854 46.5606 73.1197 47.2949 73.1197 48.2006C73.1197 49.1064 72.3854 49.8406 71.4797 49.8406C70.5739 49.8406 69.8397 49.1064 69.8397 48.2006C69.8397 47.2949 70.5739 46.5606 71.4797 46.5606Z" fill="#024547"/>
<path fill-rule="evenodd" clip-rule="evenodd" d="M94.7583 46.5606C95.664 46.5606 96.3983 47.2949 96.3983 48.2006C96.3983 49.1064 95.664 49.8406 94.7583 49.8406C93.8525 49.8406 93.1183 49.1064 93.1183 48.2006C93.1183 47.2949 93.8525 46.5606 94.7583 46.5606Z" fill="#024547"/>
<path fill-rule="evenodd" clip-rule="evenodd" d="M118.041 46.5606C118.947 46.5606 119.681 47.2949 119.681 48.2006C119.681 49.1064 118.947 49.8406 118.041 49.8406C117.135 49.8406 116.401 49.1064 116.401 48.2006C116.401 47.2949 117.135 46.5606 118.041 46.5606Z" fill="#024547"/>
<path fill-rule="evenodd" clip-rule="evenodd" d="M141.319 46.5606C142.225 46.5606 142.959 47.2949 142.959 48.2006C142.959 49.1064 142.225 49.8406 141.319 49.8406C140.414 49.8406 139.679 49.1064 139.679 48.2006C139.679 47.2949 140.414 46.5606 141.319 46.5606Z" fill="#024547"/>
<path fill-rule="evenodd" clip-rule="evenodd" d="M164.602 46.5606C165.508 46.5606 166.242 47.2949 166.242 48.2006C166.242 49.1064 165.508 49.8406 164.602 49.8406C163.696 49.8406 162.962 49.1064 162.962 48.2006C162.962 47.2949 163.696 46.5606 164.602 46.5606Z" fill="#024547"/>
<path fill-rule="evenodd" clip-rule="evenodd" d="M187.88 46.5606C188.786 46.5606 189.52 47.2949 189.52 48.2006C189.52 49.1064 188.786 49.8406 187.88 49.8406C186.975 49.8406 186.24 49.1064 186.24 48.2006C186.24 47.2949 186.975 46.5606 187.88 46.5606Z" fill="#024547"/>
<path fill-rule="evenodd" clip-rule="evenodd" d="M211.159 46.5606C212.065 46.5606 212.799 47.2949 212.799 48.2006C212.799 49.1064 212.065 49.8406 211.159 49.8406C210.253 49.8406 209.519 49.1064 209.519 48.2006C209.519 47.2949 210.253 46.5606 211.159 46.5606Z" fill="#024547"/>
<path fill-rule="evenodd" clip-rule="evenodd" d="M1.64 69.8398C2.54575 69.8398 3.28 70.5741 3.28 71.4798C3.28 72.3856 2.54575 73.1198 1.64 73.1198C0.73425 73.1198 0 72.3856 0 71.4798C0 70.5741 0.73425 69.8398 1.64 69.8398Z" fill="#024547"/>
<path fill-rule="evenodd" clip-rule="evenodd" d="M24.9186 69.8398C25.8243 69.8398 26.5586 70.5741 26.5586 71.4798C26.5586 72.3856 25.8243 73.1198 24.9186 73.1198C24.0128 73.1198 23.2786 72.3856 23.2786 71.4798C23.2786 70.5741 24.0128 69.8398 24.9186 69.8398Z" fill="#024547"/>
<path fill-rule="evenodd" clip-rule="evenodd" d="M48.2011 69.8398C49.1068 69.8398 49.8411 70.5741 49.8411 71.4798C49.8411 72.3856 49.1068 73.1198 48.2011 73.1198C47.2953 73.1198 46.5611 72.3856 46.5611 71.4798C46.5611 70.5741 47.2953 69.8398 48.2011 69.8398Z" fill="#024547"/>
<path fill-rule="evenodd" clip-rule="evenodd" d="M71.4797 69.8398C72.3854 69.8398 73.1197 70.5741 73.1197 71.4798C73.1197 72.3856 72.3854 73.1198 71.4797 73.1198C70.5739 73.1198 69.8397 72.3856 69.8397 71.4798C69.8397 70.5741 70.5739 69.8398 71.4797 69.8398Z" fill="#024547"/>
<path fill-rule="evenodd" clip-rule="evenodd" d="M94.7583 69.8398C95.664 69.8398 96.3983 70.5741 96.3983 71.4798C96.3983 72.3856 95.664 73.1198 94.7583 73.1198C93.8525 73.1198 93.1183 72.3856 93.1183 71.4798C93.1183 70.5741 93.8525 69.8398 94.7583 69.8398Z" fill="#024547"/>
<path fill-rule="evenodd" clip-rule="evenodd" d="M118.041 69.8398C118.947 69.8398 119.681 70.5741 119.681 71.4798C119.681 72.3856 118.947 73.1198 118.041 73.1198C117.135 73.1198 116.401 72.3856 116.401 71.4798C116.401 70.5741 117.135 69.8398 118.041 69.8398Z" fill="#024547"/>
<path fill-rule="evenodd" clip-rule="evenodd" d="M141.319 69.8398C142.225 69.8398 142.959 70.5741 142.959 71.4798C142.959 72.3856 142.225 73.1198 141.319 73.1198C140.414 73.1198 139.679 72.3856 139.679 71.4798C139.679 70.5741 140.414 69.8398 141.319 69.8398Z" fill="#024547"/>
<path fill-rule="evenodd" clip-rule="evenodd" d="M164.602 69.8398C165.508 69.8398 166.242 70.5741 166.242 71.4798C166.242 72.3856 165.508 73.1198 164.602 73.1198C163.696 73.1198 162.962 72.3856 162.962 71.4798C162.962 70.5741 163.696 69.8398 164.602 69.8398Z" fill="#024547"/>
<path fill-rule="evenodd" clip-rule="evenodd" d="M187.88 69.8398C188.786 69.8398 189.52 70.5741 189.52 71.4798C189.52 72.3856 188.786 73.1198 187.88 73.1198C186.975 73.1198 186.24 72.3856 186.24 71.4798C186.24 70.5741 186.975 69.8398 187.88 69.8398Z" fill="#024547"/>
<path fill-rule="evenodd" clip-rule="evenodd" d="M211.159 69.8398C212.065 69.8398 212.799 70.5741 212.799 71.4798C212.799 72.3856 212.065 73.1198 211.159 73.1198C210.253 73.1198 209.519 72.3856 209.519 71.4798C209.519 70.5741 210.253 69.8398 211.159 69.8398Z" fill="#024547"/>
</g>
<defs>
<clipPath id="clip0_71_2269">
<rect width="213" height="73" fill="white"/>
</clipPath>
</defs>
</svg>
